<svg width="200" height="335" viewBox="0 0 200 335" fill="none" xmlns="http://www.w3.org/2000/svg">
<path d="M145.685 0.790771C169.18 15.4641 176.331 46.4054 161.657 69.9L42.5409 260.626C19.0463 245.952 11.8953 215.011 26.5687 191.517L145.685 0.790771Z" fill="white"/>
<path d="M161.634 91.5549C182.823 105.281 188.873 133.585 175.148 154.774L58.7408 334.477C37.5517 320.751 31.5015 292.447 45.2272 271.258L161.634 91.5549Z" fill="white"/>
<path d="M98.7064 228.421L80.6565 206.235L53.1335 197.931L58.5809 189.81L80.9736 189.187L96.2939 166.211L48.5712 158.647L56.6663 146.504L111.411 143.491L127.059 119.869C128.464 117.755 130.443 116.445 132.994 115.937C135.546 115.429 137.876 115.882 139.984 117.296C142.1 118.708 143.411 120.685 143.917 123.228C144.424 125.771 143.972 128.1 142.562 130.214L126.74 153.78L145.713 199.122L137.618 211.265L111.579 176.475L96.2586 199.451L104.141 220.27L98.7064 228.421Z" fill="#007BFF"/>
</svg>
