<svg width="64" height="42" viewBox="0 0 64 42" fill="none" xmlns="http://www.w3.org/2000/svg">
<path d="M18.6436 0C21.5459 1.81261 22.4292 5.6348 20.6166 8.5371L5.90211 32.0976C2.99981 30.285 2.11644 26.4628 3.92905 23.5605L18.6436 0Z" fill="white"/>
<path d="M20.6136 11.2122C23.2311 12.9077 23.9785 16.4041 22.283 19.0216L7.90317 41.2204C5.28568 39.5249 4.53829 36.0285 6.23383 33.411L20.6136 11.2122Z" fill="white"/>
<path d="M12.8402 28.1192L10.6105 25.3787L7.21055 24.3528L7.88348 23.3497L10.6497 23.2726L12.5422 20.4344L6.64697 19.5L7.64697 18L14.4096 17.6279L16.3426 14.7098C16.5162 14.4487 16.7606 14.2868 17.0758 14.224C17.391 14.1613 17.6788 14.2172 17.9392 14.3919C18.2006 14.5664 18.3626 14.8106 18.4251 15.1248C18.4877 15.4389 18.4319 15.7265 18.2577 15.9877L16.3032 18.8988L18.647 24.5L17.647 26L14.4304 21.7024L12.5378 24.5406L13.5116 27.1124L12.8402 28.1192Z" fill="url(#paint0_linear_93_1773)"/>
<path d="M27.9897 33.2322C28.4175 33.4021 28.7544 33.5339 29.0005 33.6277C29.2466 33.7214 29.5044 33.8035 29.7739 33.8738C29.8501 33.6804 29.8882 33.4167 29.8882 33.0828C29.8882 32.6316 29.856 31.8054 29.7915 30.6042C29.6978 28.9988 29.6509 27.7683 29.6509 26.9128C29.6509 26.321 29.6685 25.8113 29.7036 25.3835L28.2534 25.2957L28.2271 28.0642C27.7876 28.2107 27.2925 28.2839 26.7417 28.2839C26.6011 28.2839 26.4956 28.281 26.4253 28.2751C26.2319 28.1228 26.0298 27.8826 25.8188 27.5544C25.6138 27.2263 25.4438 26.8572 25.3091 26.447C25.1743 26.0369 25.1069 25.6414 25.1069 25.2605C25.1069 24.6042 25.2153 24.1033 25.4321 23.7576C25.6489 23.4119 25.9536 23.1746 26.3462 23.0457C26.7388 22.9109 27.2632 22.823 27.9194 22.782C28.939 22.7234 30.1372 22.6794 31.5142 22.6501C32.897 22.615 34.2183 22.5974 35.478 22.5974C35.6479 22.8142 35.7739 23.0574 35.856 23.3269C35.9438 23.5964 35.9878 23.866 35.9878 24.1355C35.9878 24.6394 35.8589 25.0613 35.6011 25.4011C35.3433 25.741 34.9624 25.9109 34.4585 25.9109C34.1304 25.9109 33.7349 25.8523 33.272 25.7351C33.1665 28.489 33.0142 31.032 32.8149 33.364C32.7739 33.8152 32.7065 34.2136 32.6128 34.5593C32.519 34.905 32.3755 35.2068 32.1821 35.4646C31.9419 35.781 31.6108 36.0154 31.189 36.1677C30.7671 36.3201 30.3013 36.3962 29.7915 36.3962C29.311 36.3962 28.8364 36.3113 28.3677 36.1414C27.9048 35.9714 27.5562 35.658 27.3218 35.2009C27.3276 34.8201 27.3745 34.4832 27.4624 34.1902C27.5503 33.8914 27.7261 33.572 27.9897 33.2322ZM36.6646 29.7166C36.6646 27.9412 36.6909 26.5789 36.7437 25.6296H36.7349L35.3901 25.4451C35.314 25.2283 35.2554 24.991 35.2144 24.7332C35.1733 24.4695 35.1528 24.2146 35.1528 23.9685C35.1528 23.781 35.1675 23.5759 35.1968 23.3533C35.9116 23.113 36.8462 22.9285 38.0005 22.7996C39.1548 22.6648 40.2563 22.5974 41.3052 22.5974C42.2017 22.5974 42.9722 22.6677 43.6167 22.8083C44.2612 22.9431 44.8003 23.2537 45.2339 23.74C45.6733 24.2205 45.8931 24.9382 45.8931 25.8933C45.8931 26.2683 45.7905 26.6931 45.5854 27.1677C45.3804 27.6365 45.1108 28.0789 44.7769 28.4949C44.4487 28.905 44.106 29.2214 43.7485 29.4441C44.1938 29.5203 44.6069 29.6755 44.9878 29.9099C45.3745 30.1384 45.688 30.4519 45.9282 30.8503C46.1685 31.2429 46.2886 31.7087 46.2886 32.2478C46.2886 32.9685 46.1509 33.5896 45.8755 34.1111C45.6001 34.6326 45.2075 35.0632 44.6978 35.4031C43.7017 36.0652 42.2954 36.3962 40.479 36.3962C39.7642 36.3962 39.1284 36.3816 38.5718 36.3523C38.021 36.3289 37.5112 36.282 37.0425 36.2117C36.7905 34.8523 36.6646 32.6873 36.6646 29.7166ZM41.6655 29.1628C41.8179 28.7351 41.9468 28.1931 42.0522 27.5369C42.1636 26.8748 42.231 26.3357 42.2544 25.9197C42.2251 25.8669 42.0757 25.823 41.8062 25.7878C41.5366 25.7468 41.188 25.7263 40.7603 25.7263C40.6255 25.7263 40.3999 25.7351 40.0835 25.7527C40.0366 27.071 39.9663 28.2546 39.8726 29.3035L40.7603 29.2332L41.6655 29.1628ZM41.2261 34.0935C41.7183 34.0935 42.0698 34.073 42.2808 34.032C42.4272 33.9441 42.5562 33.7859 42.6675 33.5574C42.7847 33.3289 42.8726 33.0798 42.9312 32.8103C42.9897 32.5349 43.019 32.2888 43.019 32.072C42.9136 31.7673 42.3892 31.615 41.4458 31.615C41.0474 31.615 40.5903 31.6414 40.0747 31.6941C39.9341 31.7117 39.8286 31.7205 39.7583 31.7205L39.7319 33.0037C39.7261 33.1326 39.7202 33.282 39.7144 33.4519C39.7085 33.6218 39.7056 33.8123 39.7056 34.0232C40.0923 34.0701 40.5142 34.0935 40.9712 34.0935H41.2261ZM48.5034 35.7898C48.5034 35.5378 48.4917 34.7908 48.4683 33.5486C48.4214 31.7322 48.3979 30.1619 48.3979 28.8376C48.3979 27.5427 48.4214 26.447 48.4683 25.5505L47.0356 25.366C46.9478 25.0085 46.8892 24.7126 46.8599 24.4783C46.8306 24.238 46.8188 23.9626 46.8247 23.6521C46.9419 23.5056 47.1587 23.3503 47.4751 23.1863C47.7974 23.0164 48.1606 22.8757 48.5649 22.7644C48.9751 22.6531 49.3706 22.5974 49.7515 22.5974C50.4312 22.5974 50.9849 22.7498 51.4126 23.0544C51.8462 23.3591 52.0747 23.7986 52.0981 24.3728C52.1099 24.7126 52.1157 25.0027 52.1157 25.2429C52.1157 26.3503 52.0688 27.6863 51.9751 29.2507C51.8813 30.8093 51.7554 32.6521 51.5972 34.7791L51.5093 36.0183C51.0464 36.2761 50.519 36.405 49.9272 36.405C49.4233 36.405 48.9487 36.3142 48.5034 36.1326V35.7898ZM53.478 33.9968C53.478 33.4636 53.5864 32.9509 53.8032 32.4587C53.9028 32.4587 54.0581 32.4792 54.269 32.5203C54.48 32.5554 54.7026 32.6023 54.937 32.6609C54.9077 31.4011 54.8931 30.1707 54.8931 28.9695C54.8931 27.6746 54.9165 26.5701 54.9634 25.656H54.9546L54.9634 25.5505L53.5308 25.366C53.4429 25.0085 53.3843 24.7126 53.355 24.4783C53.3257 24.238 53.314 23.9626 53.3198 23.6521C53.5073 23.4412 53.7827 23.2566 54.146 23.0984C54.5151 22.9343 54.9106 22.8113 55.3325 22.7292C55.7603 22.6414 56.1499 22.5974 56.5015 22.5974C57.1753 22.5974 57.6997 22.7322 58.0747 23.0017C58.4556 23.2654 58.6724 23.6873 58.7251 24.2673C58.7427 24.4958 58.7515 24.7449 58.7515 25.0144C58.7515 25.905 58.6724 26.9597 58.5142 28.1785C58.356 29.3972 58.145 30.821 57.8813 32.45L57.811 32.907L60.0522 33.03L60.9663 30.1121C61.2417 30.1003 61.5552 30.1208 61.9067 30.1736C62.2642 30.2263 62.5718 30.2996 62.8296 30.3933C62.9351 30.6687 63.0317 31.1082 63.1196 31.7117C63.2134 32.3093 63.2603 32.8953 63.2603 33.4695C63.2603 34.4246 63.1196 35.0955 62.8384 35.4822C62.6978 35.6697 62.5015 35.8337 62.2495 35.9744C62.0034 36.1091 61.7427 36.2117 61.4673 36.282C61.1978 36.3582 60.9546 36.3962 60.7378 36.3962C60.3921 36.3962 59.9878 36.323 59.5249 36.1765C59.062 36.0242 58.6079 35.8337 58.1626 35.6052C57.7173 35.3708 57.3511 35.1365 57.064 34.9021C56.8003 35.3591 56.4956 35.7136 56.1499 35.9656C55.8042 36.2175 55.3735 36.3611 54.8579 36.3962C54.606 36.3552 54.3745 36.2234 54.1636 36.0007C53.9526 35.7781 53.7856 35.491 53.6626 35.1394C53.5396 34.7878 53.478 34.407 53.478 33.9968Z" fill="white"/>
<defs>
<linearGradient id="paint0_linear_93_1773" x1="11.9241" y1="15.2497" x2="14.4236" y2="27.804" gradientUnits="userSpaceOnUse">
<stop stop-color="#007BFF"/>
<stop offset="1" stop-color="#004A99"/>
</linearGradient>
</defs>
</svg>
