<svg width="72" height="42" viewBox="0 0 72 42" fill="none" xmlns="http://www.w3.org/2000/svg">
<path d="M17.9966 0.389771C20.8989 2.20238 21.7823 6.02457 19.9696 8.92687L5.25514 32.4873C2.35284 30.6747 1.46947 26.8525 3.28208 23.9502L17.9966 0.389771Z" fill="url(#paint0_linear_102_622)"/>
<path d="M19.9668 11.6019C22.5843 13.2974 23.3317 16.7938 21.6361 19.4113L7.25632 41.6101C4.63883 39.9146 3.89144 36.4182 5.58698 33.8007L19.9668 11.6019Z" fill="url(#paint1_linear_102_622)"/>
<path d="M12.1932 28.509L9.96352 25.7684L6.56358 24.7426L7.23651 23.7394L10.0027 23.6624L11.8952 20.8242L6 19.8898L7 18.3898L13.7626 18.0176L15.6956 15.0995C15.8693 14.8385 16.1137 14.6766 16.4289 14.6138C16.744 14.5511 17.0318 14.607 17.2922 14.7817C17.5536 14.9561 17.7156 15.2004 17.7782 15.5145C17.8407 15.8286 17.7849 16.1163 17.6108 16.3775L15.6562 19.2886L18 24.8898L17 26.3898L13.7834 22.0922L11.8909 24.9304L12.8646 27.5021L12.1932 28.509Z" fill="white"/>
<path d="M27.3428 33.6219C27.7705 33.7918 28.1074 33.9236 28.3535 34.0174C28.5996 34.1111 28.8574 34.1932 29.127 34.2635C29.2031 34.0701 29.2412 33.8065 29.2412 33.4725C29.2412 33.0213 29.209 32.1951 29.1445 30.994C29.0508 29.3885 29.0039 28.158 29.0039 27.3026C29.0039 26.7108 29.0215 26.201 29.0566 25.7733L27.6064 25.6854L27.5801 28.4539C27.1406 28.6004 26.6455 28.6736 26.0947 28.6736C25.9541 28.6736 25.8486 28.6707 25.7783 28.6649C25.585 28.5125 25.3828 28.2723 25.1719 27.9442C24.9668 27.616 24.7969 27.2469 24.6621 26.8367C24.5273 26.4266 24.46 26.0311 24.46 25.6502C24.46 24.994 24.5684 24.493 24.7852 24.1473C25.002 23.8016 25.3066 23.5643 25.6992 23.4354C26.0918 23.3006 26.6162 23.2127 27.2725 23.1717C28.292 23.1131 29.4902 23.0692 30.8672 23.0399C32.25 23.0047 33.5713 22.9871 34.8311 22.9871C35.001 23.2039 35.127 23.4471 35.209 23.7166C35.2969 23.9861 35.3408 24.2557 35.3408 24.5252C35.3408 25.0291 35.2119 25.451 34.9541 25.7908C34.6963 26.1307 34.3154 26.3006 33.8115 26.3006C33.4834 26.3006 33.0879 26.242 32.625 26.1248C32.5195 28.8787 32.3672 31.4217 32.168 33.7537C32.127 34.2049 32.0596 34.6033 31.9658 34.949C31.8721 35.2947 31.7285 35.5965 31.5352 35.8543C31.2949 36.1707 30.9639 36.4051 30.542 36.5574C30.1201 36.7098 29.6543 36.7859 29.1445 36.7859C28.6641 36.7859 28.1895 36.701 27.7207 36.5311C27.2578 36.3611 26.9092 36.0477 26.6748 35.5906C26.6807 35.2098 26.7275 34.8729 26.8154 34.5799C26.9033 34.2811 27.0791 33.9617 27.3428 33.6219ZM36.0176 30.1063C36.0176 28.3309 36.0439 26.9686 36.0967 26.0193H36.0879L34.7432 25.8348C34.667 25.618 34.6084 25.3807 34.5674 25.1229C34.5264 24.8592 34.5059 24.6043 34.5059 24.3582C34.5059 24.1707 34.5205 23.9656 34.5498 23.743C35.2646 23.5027 36.1992 23.3182 37.3535 23.1893C38.5078 23.0545 39.6094 22.9871 40.6582 22.9871C41.5547 22.9871 42.3252 23.0574 42.9697 23.1981C43.6143 23.3328 44.1533 23.6434 44.5869 24.1297C45.0264 24.6102 45.2461 25.3279 45.2461 26.283C45.2461 26.658 45.1436 27.0828 44.9385 27.5574C44.7334 28.0262 44.4639 28.4686 44.1299 28.8846C43.8018 29.2947 43.459 29.6111 43.1016 29.8338C43.5469 29.91 43.96 30.0652 44.3408 30.2996C44.7275 30.5281 45.041 30.8416 45.2812 31.2401C45.5215 31.6326 45.6416 32.0984 45.6416 32.6375C45.6416 33.3582 45.5039 33.9793 45.2285 34.5008C44.9531 35.0223 44.5605 35.4529 44.0508 35.7928C43.0547 36.4549 41.6484 36.7859 39.832 36.7859C39.1172 36.7859 38.4814 36.7713 37.9248 36.742C37.374 36.7186 36.8643 36.6717 36.3955 36.6014C36.1436 35.242 36.0176 33.077 36.0176 30.1063ZM41.0186 29.5526C41.1709 29.1248 41.2998 28.5828 41.4053 27.9266C41.5166 27.2645 41.584 26.7254 41.6074 26.3094C41.5781 26.2567 41.4287 26.2127 41.1592 26.1776C40.8896 26.1365 40.541 26.116 40.1133 26.116C39.9785 26.116 39.7529 26.1248 39.4365 26.1424C39.3896 27.4608 39.3193 28.6443 39.2256 29.6932L40.1133 29.6229L41.0186 29.5526ZM40.5791 34.4832C41.0713 34.4832 41.4229 34.4627 41.6338 34.4217C41.7803 34.3338 41.9092 34.1756 42.0205 33.9471C42.1377 33.7186 42.2256 33.4695 42.2842 33.2C42.3428 32.9246 42.3721 32.6785 42.3721 32.4617C42.2666 32.157 41.7422 32.0047 40.7988 32.0047C40.4004 32.0047 39.9434 32.0311 39.4277 32.0838C39.2871 32.1014 39.1816 32.1102 39.1113 32.1102L39.085 33.3934C39.0791 33.5223 39.0732 33.6717 39.0674 33.8416C39.0615 34.0115 39.0586 34.202 39.0586 34.4129C39.4453 34.4598 39.8672 34.4832 40.3242 34.4832H40.5791ZM47.8564 36.1795C47.8564 35.9276 47.8447 35.1805 47.8213 33.9383C47.7744 32.1219 47.751 30.5516 47.751 29.2274C47.751 27.9324 47.7744 26.8367 47.8213 25.9402L46.3887 25.7557C46.3008 25.3983 46.2422 25.1024 46.2129 24.868C46.1836 24.6277 46.1719 24.3524 46.1777 24.0418C46.2949 23.8953 46.5117 23.7401 46.8281 23.576C47.1504 23.4061 47.5137 23.2654 47.918 23.1541C48.3281 23.0428 48.7236 22.9871 49.1045 22.9871C49.7842 22.9871 50.3379 23.1395 50.7656 23.4442C51.1992 23.7488 51.4277 24.1883 51.4512 24.7625C51.4629 25.1024 51.4688 25.3924 51.4688 25.6326C51.4688 26.7401 51.4219 28.076 51.3281 29.6404C51.2344 31.199 51.1084 33.0418 50.9502 35.1688L50.8623 36.408C50.3994 36.6658 49.8721 36.7947 49.2803 36.7947C48.7764 36.7947 48.3018 36.7039 47.8564 36.5223V36.1795ZM52.8311 34.3865C52.8311 33.8533 52.9395 33.3406 53.1562 32.8484C53.2559 32.8484 53.4111 32.869 53.6221 32.91C53.833 32.9451 54.0557 32.992 54.29 33.0506C54.2607 31.7908 54.2461 30.5604 54.2461 29.3592C54.2461 28.0643 54.2695 26.9598 54.3164 26.0457H54.3076L54.3164 25.9402L52.8838 25.7557C52.7959 25.3983 52.7373 25.1024 52.708 24.868C52.6787 24.6277 52.667 24.3524 52.6729 24.0418C52.8604 23.8309 53.1357 23.6463 53.499 23.4881C53.8682 23.324 54.2637 23.201 54.6855 23.119C55.1133 23.0311 55.5029 22.9871 55.8545 22.9871C56.5283 22.9871 57.0527 23.1219 57.4277 23.3914C57.8086 23.6551 58.0254 24.077 58.0781 24.657C58.0957 24.8856 58.1045 25.1346 58.1045 25.4041C58.1045 26.2947 58.0254 27.3494 57.8672 28.5682C57.709 29.7869 57.498 31.2108 57.2344 32.8397L57.1641 33.2967L59.4053 33.4197L60.3193 30.5018C60.5947 30.4901 60.9082 30.5106 61.2598 30.5633C61.6172 30.616 61.9248 30.6893 62.1826 30.783C62.2881 31.0584 62.3848 31.4979 62.4727 32.1014C62.5664 32.699 62.6133 33.285 62.6133 33.8592C62.6133 34.8143 62.4727 35.4852 62.1914 35.8719C62.0508 36.0594 61.8545 36.2234 61.6025 36.3641C61.3564 36.4988 61.0957 36.6014 60.8203 36.6717C60.5508 36.7479 60.3076 36.7859 60.0908 36.7859C59.7451 36.7859 59.3408 36.7127 58.8779 36.5662C58.415 36.4139 57.9609 36.2234 57.5156 35.9949C57.0703 35.7606 56.7041 35.5262 56.417 35.2918C56.1533 35.7488 55.8486 36.1033 55.5029 36.3553C55.1572 36.6072 54.7266 36.7508 54.2109 36.7859C53.959 36.7449 53.7275 36.6131 53.5166 36.3904C53.3057 36.1678 53.1387 35.8807 53.0156 35.5291C52.8926 35.1776 52.8311 34.7967 52.8311 34.3865ZM63.9844 33.5076C64.5 33.7127 64.9131 33.8709 65.2236 33.9822C65.5342 34.0936 65.874 34.1902 66.2432 34.2723C66.6182 34.3543 66.9902 34.3953 67.3594 34.3953C67.5234 34.3953 67.6406 34.3807 67.7109 34.3514C67.7285 34.3279 67.7432 34.2928 67.7549 34.2459C67.7725 34.1932 67.7812 34.1404 67.7812 34.0877C67.7812 33.9705 67.7139 33.8738 67.5791 33.7977C67.3682 33.6805 66.9932 33.4959 66.4541 33.244C65.7158 32.8924 65.1299 32.5789 64.6963 32.3035C64.2686 32.0281 63.9053 31.6619 63.6064 31.2049C63.3135 30.7479 63.167 30.1736 63.167 29.4822C63.167 28.492 63.4629 27.6981 64.0547 27.1004C64.6465 26.4969 65.584 26.1951 66.8672 26.1951C68.3965 26.1951 69.5859 26.3943 70.4355 26.7928C70.4766 26.9627 70.4971 27.1766 70.4971 27.4344C70.4971 27.9266 70.4209 28.4305 70.2686 28.9461C70.1162 29.4559 69.917 29.8338 69.6709 30.0799C69.3369 29.9686 68.8652 29.7899 68.2559 29.5438C67.8105 29.368 67.4561 29.2332 67.1924 29.1395C66.9346 29.0399 66.6973 28.9695 66.4805 28.9285C66.3633 28.9578 66.2695 29.0281 66.1992 29.1395C66.1289 29.2449 66.0938 29.3709 66.0938 29.5174C66.0938 29.6463 66.1318 29.7547 66.208 29.8426C66.2842 29.9305 66.3691 30.0008 66.4629 30.0535C66.5625 30.1004 66.7031 30.1649 66.8848 30.2469C66.9785 30.2879 67.0664 30.326 67.1484 30.3611C67.2305 30.3904 67.3066 30.4197 67.377 30.449C67.834 30.6424 68.1943 30.8006 68.458 30.9236C68.7217 31.0467 68.9766 31.1932 69.2227 31.3631C69.6738 31.6736 70.0283 32.0281 70.2861 32.4266C70.5439 32.825 70.6729 33.2615 70.6729 33.7361C70.6729 34.3924 70.4854 34.9608 70.1104 35.4412C69.7412 35.9158 69.2666 36.2615 68.6865 36.4783C68.3818 36.5897 68.0479 36.6688 67.6846 36.7156C67.3271 36.7684 66.9082 36.7947 66.4277 36.7947C65.8594 36.7947 65.2734 36.6863 64.6699 36.4695C64.0723 36.2469 63.6152 35.8777 63.2988 35.3621C63.3047 35.0047 63.3516 34.6942 63.4395 34.4305C63.5332 34.1609 63.7148 33.8533 63.9844 33.5076Z" fill="#007BFF"/>
<defs>
<linearGradient id="paint0_linear_102_622" x1="20.6241" y1="2.03078" x2="2.6276" y2="30.8463" gradientUnits="userSpaceOnUse">
<stop stop-color="#007BFF"/>
<stop offset="1" stop-color="#004A99"/>
</linearGradient>
<linearGradient id="paint1_linear_102_622" x1="22.3365" y1="13.1369" x2="4.88662" y2="40.0751" gradientUnits="userSpaceOnUse">
<stop stop-color="#007BFF"/>
<stop offset="1" stop-color="#004A99"/>
</linearGradient>
</defs>
</svg>
