<svg width="100" height="50" viewBox="0 0 100 50" fill="none" xmlns="http://www.w3.org/2000/svg">
<rect width="100" height="50" rx="5" fill="#11101C"/>
<g clip-path="url(#clip0_102_4)">
<path d="M37.9081 39.8509V37.8653C37.9081 37.104 37.4518 36.6078 36.6697 36.6078C36.2787 36.6078 35.855 36.7401 35.5617 37.1704C35.3337 36.8063 35.0079 36.6078 34.5191 36.6078C34.1931 36.6078 33.8675 36.707 33.6067 37.071V36.6739H32.9224V39.8509H33.6067V38.0969C33.6067 37.5344 33.9 37.2696 34.3563 37.2696C34.8123 37.2696 35.0406 37.5675 35.0406 38.0969V39.8509H35.7249V38.0969C35.7249 37.5344 36.0505 37.2696 36.4742 37.2696C36.9305 37.2696 37.1585 37.5675 37.1585 38.0969V39.8509H37.9081ZM48.0421 36.6739H46.9343V35.7142H46.25V36.6739H45.6308V37.3026H46.2498V38.7589C46.2498 39.487 46.5431 39.9171 47.3253 39.9171C47.6186 39.9171 47.9442 39.8179 48.1725 39.6856L47.9769 39.0898C47.7814 39.2221 47.5534 39.2553 47.3904 39.2553C47.0646 39.2553 46.9343 39.0568 46.9343 38.7257V37.3026H48.0421V36.6739ZM53.8424 36.6076C53.4514 36.6076 53.1908 36.8063 53.0278 37.071V36.6739H52.3435V39.8509H53.0278V38.0639C53.0278 37.5344 53.2558 37.2366 53.6794 37.2366C53.8097 37.2366 53.9727 37.2697 54.1031 37.3027L54.2986 36.6409C54.1682 36.6078 53.9727 36.6078 53.8424 36.6078M45.0769 36.9388C44.7509 36.7071 44.2948 36.6079 43.8059 36.6079C43.024 36.6079 42.5027 37.005 42.5027 37.6338C42.5027 38.1634 42.8937 38.4611 43.5779 38.5605L43.9038 38.5936C44.2622 38.6597 44.4577 38.759 44.4577 38.9245C44.4577 39.1561 44.1971 39.3216 43.7408 39.3216C43.2845 39.3216 42.9262 39.1561 42.698 38.9907L42.3722 39.5202C42.7307 39.7849 43.2195 39.9173 43.7081 39.9173C44.6206 39.9173 45.142 39.4872 45.142 38.8914C45.142 38.3288 44.7184 38.0309 44.0666 37.9317L43.7408 37.8985C43.4475 37.8653 43.2195 37.7993 43.2195 37.6008C43.2195 37.3691 43.4475 37.2367 43.8059 37.2367C44.1971 37.2367 44.5881 37.4021 44.7836 37.5014L45.0769 36.9388ZM63.2597 36.6079C62.8686 36.6079 62.6079 36.8065 62.445 37.0712V36.6741H61.7607V39.8511H62.445V38.064C62.445 37.5346 62.6731 37.2367 63.0966 37.2367C63.2271 37.2367 63.3901 37.2699 63.5204 37.3029L63.7159 36.6411C63.5855 36.6079 63.3901 36.6079 63.2597 36.6079ZM54.5267 38.2626C54.5267 39.2223 55.1783 39.9173 56.1886 39.9173C56.6448 39.9173 56.9706 39.8181 57.2964 39.5533L56.9706 38.9907C56.7099 39.1893 56.4493 39.2885 56.156 39.2885C55.602 39.2885 55.211 38.8914 55.211 38.2626C55.211 37.667 55.602 37.2697 56.156 37.2367C56.4493 37.2367 56.7099 37.3359 56.9706 37.5346L57.2964 36.972C56.9706 36.7071 56.6448 36.6079 56.1886 36.6079C55.1783 36.6079 54.5267 37.3029 54.5267 38.2626ZM60.8484 38.2626V36.6741H60.1641V37.0712C59.9359 36.7734 59.6101 36.6079 59.1865 36.6079C58.3067 36.6079 57.6224 37.3029 57.6224 38.2626C57.6224 39.2223 58.3067 39.9173 59.1865 39.9173C59.6426 39.9173 59.9686 39.7519 60.1641 39.454V39.8511H60.8484V38.2626ZM58.3392 38.2626C58.3392 37.7 58.6976 37.2367 59.2841 37.2367C59.8381 37.2367 60.2292 37.667 60.2292 38.2626C60.2292 38.8252 59.8381 39.2885 59.2841 39.2885C58.6976 39.2553 58.3392 38.8252 58.3392 38.2626ZM50.1603 36.6079C49.2478 36.6079 48.596 37.2697 48.596 38.2626C48.596 39.2555 49.2477 39.9173 50.1928 39.9173C50.6489 39.9173 51.1052 39.7849 51.4637 39.4872L51.1377 38.9907C50.8771 39.1893 50.5512 39.3216 50.2254 39.3216C49.8018 39.3216 49.3781 39.1231 49.2803 38.5603H51.594V38.2958C51.6267 37.2697 51.0402 36.6079 50.1603 36.6079ZM50.1601 37.2035C50.5836 37.2035 50.8771 37.4684 50.9421 37.9648H49.3128C49.378 37.5346 49.6713 37.2035 50.1601 37.2035ZM67.1372 38.2626V35.4165H66.4529V37.0712C66.2248 36.7734 65.8989 36.6079 65.4753 36.6079C64.5955 36.6079 63.9112 37.3029 63.9112 38.2626C63.9112 39.2223 64.5955 39.9173 65.4753 39.9173C65.9316 39.9173 66.2574 39.7519 66.4529 39.454V39.8511H67.1372V38.2626ZM64.6282 38.2626C64.6282 37.7 64.9865 37.2367 65.5731 37.2367C66.1271 37.2367 66.5181 37.667 66.5181 38.2626C66.5181 38.8252 66.1271 39.2885 65.5731 39.2885C64.9865 39.2553 64.6282 38.8252 64.6282 38.2626ZM41.7529 38.2626V36.6741H41.0686V37.0712C40.8405 36.7734 40.5146 36.6079 40.091 36.6079C39.2112 36.6079 38.5269 37.3029 38.5269 38.2626C38.5269 39.2223 39.2112 39.9173 40.091 39.9173C40.5473 39.9173 40.8731 39.7519 41.0686 39.454V39.8511H41.7529V38.2626ZM39.2112 38.2626C39.2112 37.7 39.5697 37.2367 40.1562 37.2367C40.7101 37.2367 41.1013 37.667 41.1013 38.2626C41.1013 38.8252 40.7101 39.2885 40.1562 39.2885C39.5697 39.2553 39.2112 38.8252 39.2112 38.2626Z" fill="black"/>
<path d="M44.8491 12.5482H55.1136V31.2795H44.8491V12.5482Z" fill="#FF5F00"/>
<path d="M45.5007 21.9139C45.5007 18.1081 47.2603 14.7325 49.9648 12.5482C47.9772 10.9597 45.4682 10 42.731 10C36.2462 10 31 15.3281 31 21.9139C31 28.4997 36.2462 33.8278 42.7309 33.8278C45.4681 33.8278 47.9771 32.8681 49.9648 31.2795C47.2603 29.1284 45.5007 25.7197 45.5007 21.9139Z" fill="#EB001B"/>
<path d="M68.9624 21.9139C68.9624 28.4996 63.7162 33.8278 57.2315 33.8278C54.4943 33.8278 51.9853 32.8681 49.9976 31.2795C52.7347 29.0954 54.4618 25.7197 54.4618 21.9139C54.4618 18.1081 52.7021 14.7325 49.9976 12.5482C51.9851 10.9597 54.4943 10 57.2315 10C63.7162 10 68.9624 15.3613 68.9624 21.9139Z" fill="#F79E1B"/>
</g>
<defs>
<clipPath id="clip0_102_4">
<rect width="38" height="30" fill="white" transform="translate(31 10)"/>
</clipPath>
</defs>
</svg>
