<svg width="60" height="60" viewBox="0 0 60 60" fill="none" xmlns="http://www.w3.org/2000/svg">
<path fill-rule="evenodd" clip-rule="evenodd" d="M46.4587 13.541C45.3974 12.4798 44.0652 12.6199 43.4652 13.2201L33.9252 22.7601L19.0411 19.7454L18.6727 20.1138L30.5262 26.1589L19.3957 37.2894L12.0169 35.7189L11.4417 36.2942L18.7675 41.2322L23.7055 48.5582L24.2808 47.9829L22.7103 40.6039L33.8409 29.4734L39.8859 41.3269L40.2544 40.9587L37.2397 26.0747L46.7797 16.5347C47.3799 15.9345 47.5199 14.6023 46.4587 13.541ZM40.8134 10.5685C43.1537 8.2281 46.8764 8.65557 49.1104 10.8894C51.3442 13.1232 51.7717 16.8459 49.4312 19.1863L41.3147 27.3029L44.3292 42.1869L38.8894 47.6269L32.8442 35.7734L26.8022 41.8154L28.3727 49.1944L23.1394 54.4274L16.0661 43.9337L5.57227 36.8604L10.8054 31.6272L18.1843 33.1977L24.2263 27.1557L12.3728 21.1104L17.8128 15.6704L32.6967 18.6851L40.8134 10.5685Z" fill="#080341"/>
</svg>
