<svg width="52" height="185" viewBox="0 0 52 185" fill="none" xmlns="http://www.w3.org/2000/svg">
<path fill-rule="evenodd" clip-rule="evenodd" d="M41.8864 4.53885C40.8252 3.47763 39.4929 3.61775 38.8929 4.21793L29.3529 13.7579L14.4689 10.7432L14.1005 11.1116L25.9539 17.1567L14.8235 28.2872L7.4446 26.7167L6.8694 27.292L14.1953 32.23L19.1333 39.556L19.7085 38.9807L18.138 31.6017L29.2687 20.4712L35.3137 32.3247L35.6822 31.9565L32.6674 17.0725L42.2074 7.53248C42.8077 6.9323 42.9477 5.60008 41.8864 4.53885ZM36.2412 1.56628C38.5814 -0.774098 42.3042 -0.346623 44.5382 1.8872C46.7719 4.12103 47.1994 7.84375 44.8589 10.1841L36.7424 18.3007L39.7569 33.1847L34.3172 38.6247L28.2719 26.7712L22.2299 32.8132L23.8004 40.1922L18.5672 45.4252L11.4938 34.9315L1 27.8582L6.23315 22.625L13.612 24.1955L19.6541 18.1535L7.80055 12.1082L13.2405 6.66825L28.1244 9.68293L36.2412 1.56628Z" fill="#080341"/>
<path d="M25.0712 45.4253C25.0712 45.4253 60.5712 79.4253 25.0712 100.425C-10.4288 121.425 -3.42837 130.925 25.0712 145.925C53.5708 160.925 25.0712 183.925 25.0712 183.925" stroke="black" stroke-width="2" stroke-dasharray="4 4"/>
</svg>
