<svg width="100" height="50" viewBox="0 0 100 50" fill="none" xmlns="http://www.w3.org/2000/svg">
<rect x="0.5" y="0.5" width="99" height="49" rx="4.5" stroke="#A8A8A8"/>
<g clip-path="url(#clip0_102_15)">
<path d="M50.9618 21.7314C50.9299 24.2288 53.2069 25.6224 54.9221 26.451C56.6843 27.3012 57.2763 27.8464 57.2693 28.6067C57.2562 29.7702 55.8636 30.2837 54.5605 30.3037C52.287 30.3386 50.9651 29.6952 49.9142 29.2085L49.0952 33.0078C50.1496 33.4895 52.102 33.9095 54.1265 33.928C58.8788 33.928 61.9879 31.6023 62.0048 27.9964C62.0234 23.4201 55.6199 23.1668 55.6637 21.1213C55.6788 20.5011 56.2757 19.8392 57.5838 19.6709C58.2313 19.5859 60.0187 19.5208 62.0452 20.446L62.8406 16.7701C61.7508 16.3767 60.3502 16 58.6063 16C54.1333 16 50.9872 18.3573 50.9618 21.7314ZM70.4833 16.3166C69.6155 16.3166 68.8843 16.8184 68.5579 17.5885L61.7694 33.658H66.5182L67.4632 31.0688H73.2663L73.8144 33.658H78L74.3475 16.3166H70.4833ZM71.1477 21.0012L72.5181 27.513H68.7648L71.1477 21.0012ZM45.2041 16.3168L41.4609 33.6578H45.9862L49.7277 16.3164L45.2041 16.3168ZM38.5097 16.3168L33.7996 28.1198L31.8943 18.0839C31.6707 16.9635 30.7878 16.3166 29.8074 16.3166H22.1078L22 16.8202C23.5807 17.1602 25.3766 17.7087 26.4647 18.2955C27.1306 18.654 27.3204 18.9674 27.5392 19.8192L31.1479 33.658H35.93L43.2616 16.3166L38.5097 16.3168Z" fill="url(#paint0_linear_102_15)"/>
</g>
<defs>
<linearGradient id="paint0_linear_102_15" x1="2596.54" y1="69.8915" x2="2647.99" y2="-1771.37" gradientUnits="userSpaceOnUse">
<stop stop-color="#222357"/>
<stop offset="1" stop-color="#254AA5"/>
</linearGradient>
<clipPath id="clip0_102_15">
<rect width="56" height="18" fill="white" transform="translate(22 16)"/>
</clipPath>
</defs>
</svg>
